<?xml version="1.0" encoding="utf-8"?>
<!-- Generator: Adobe Illustrator 21.0.0, SVG Export Plug-In . SVG Version: 6.00 Build 0)  -->
<svg version="1.1" id="Warstwa_1" xmlns="http://www.w3.org/2000/svg" xmlns:xlink="http://www.w3.org/1999/xlink" x="0px" y="0px"
	 viewBox="0 0 414.8 240.7" style="enable-background:new 0 0 414.8 240.7;" xml:space="preserve">
<style type="text/css">
	.st0{fill:none;stroke:#000000;stroke-miterlimit:10;}
</style>
<title>czejsc</title>
<g id="Warstwa_2">
	<g id="Warstwa_1-2">
		<path class="st0" d="M136.6,153.1"/>
		<path class="st0" d="M157.1,1.5c-29.6-2.1-61-4.1-88.6,9C45.9,21.2,29.2,41.2,17.9,63.1C12.1,74.6,7.4,86.6,4,98.9
			c-2.9,10.2-7.8,24.8,1.2,33.4s26.5,9.3,38.3,8.8c15.2-0.7,30.1-4.8,44.1-10.6c24.9-10.3,56-26.8,61.1-56.1c0.2-0.8-0.2-1.6-1-1.9
			c-0.6-0.2-1.2,0-1.6,0.4c-5.9,6-10.3,13.3-12.8,21.4c-0.2,0.8,0.3,1.6,1.1,1.8c0.1,0,0.3,0.1,0.4,0.1l10.9,0.2
			c3.2,0.1,7.9-0.6,10.9,0.6c7.7,3,0.6,16.6-1.5,21.3c-5.1,11.8-12,22.8-20.5,32.5l2.4,1.8c5.7-9.9,12.1-21,23.7-24.6
			c10.1-3.1,17.9,4,27.6,5c14.7,1.4,30.5-7.7,35.4-21.9c2.2-6.2,0.8-13.6-6.8-14.5c-6.9-0.9-11.9,4.4-14.2,10.3
			c-1.9,4.8-2.8,10.2-3.5,15.3c-0.6,4.6-1.9,10.7-0.2,15.1c2.7,7.2,11.9,5.1,17.6,3.5c19.9-5.5,37.1-18.2,48.2-35.5l-2.8-0.8
			l-0.8,64.9c-0.1,11.1-0.3,22.3-0.4,33.4c-0.1,9.9-0.3,21-7.2,28.8c-3.3,3.7-8.5,6.9-13.7,5.8c-6.8-1.4-8.1-10.1-8.8-15.8
			c-1.2-10.7,0.5-21.5,3.6-31.7c5-16.3,13.4-31.3,24.8-44c12.8-14.4,28.8-25.6,46.8-32.5"/>
		<path class="st0" d="M314.5,98.2"/>
		<path class="st0" d="M348.8,84.6L348.8,84.6c-12.8-0.2-25.4,3.6-35.8,11c-0.7,0.4-0.9,1.4-0.5,2.1c0.3,0.4,0.7,0.7,1.3,0.7
			c6.9,0,13.7,1.1,20.3,3.2c3.8,1.2,7.4,2.8,10.9,4.7c1.9,1.1,3.5,1.5,3.6,4s-0.8,2.7-2.6,4.1c-10.5,8.4-23.4,13.2-36.8,13.6"/>
		<path class="st0" d="M402,90.4L402,90.4c-6.3-0.3-12.4,0-18.6,0.9c-3.2,0.4-8.5,0.5-10.6,3.6c-1,1.5-1,3.7-1.3,5.4l-1.2,9.5
			l-1.3,9.4c-0.4,2.8-1.4,6.3-0.7,9.2c1.8,7.1,11.4,4.3,16.1,2.7c10.6-3.5,20.6-8.6,29.7-15.1"/>
		<path class="st0" d="M380.5,55.4v4.4"/>
		<path d="M383.5,59.8L383.5,59.8"/>
		<path class="st0" d="M363.2,45.5c-4.4,4.3-6.6,10.4-6,16.5"/>
		<path class="st0" d="M360.2,62"/>
		<path class="st0" d="M265.3,70.9c0,0.8,0.7,1.5,1.5,1.5"/>
	</g>
</g>
</svg>
