<?xml version="1.0" encoding="utf-8"?>
<!-- Generator: Adobe Illustrator 21.0.0, SVG Export Plug-In . SVG Version: 6.00 Build 0)  -->
<svg version="1.1" id="Warstwa_1" xmlns="http://www.w3.org/2000/svg" xmlns:xlink="http://www.w3.org/1999/xlink" x="0px" y="0px"
	 viewBox="0 0 742.2 460.3" style="enable-background:new 0 0 742.2 460.3;" xml:space="preserve">
<style type="text/css">
	.st0{fill:none;stroke:#000000;stroke-miterlimit:10;}
</style>
<title>sign</title>
<g id="Warstwa_2">
	<g id="Warstwa_1-2">
		<path class="st0" d="M622.6,126.2c1,4.5,2.4,9.8,0.7,14.3c-2.2,5.9-8.1,7.6-12.8,3.2c-4.1-3.9-7-7-12.9-7.9
			c-14.8-2.1-26.5,9.6-40.8,10.9l1.5,1.5c0.9-8.7,0.7-17.5-0.7-26.2c-0.2-1.2-1.8-1.3-2.5-0.7c-14.3,12.8-25,29.1-30.9,47.4
			c-0.5,1.6,2,2.7,2.7,1.2l12.6-25.1c0.4-0.7,0.1-1.7-0.6-2.1c-0.2-0.1-0.5-0.2-0.7-0.2c-45.8-0.6-81.3-40.1-127.5-38.4
			c-0.8,0-1.5,0.7-1.5,1.6c0,0.1,0,0.2,0,0.3c1.9,11.1,5,23.8,13.4,31.9s20.2,7.4,29.1,0.6c11.9-9.1,19.8-24.2,27.8-36.6
			c9.7-14.9,18.9-30,27.8-45.4c10.3-17.8,20-35.9,29.1-54.3c0.7-1.4-1.2-3.2-2.4-1.8c-44,52.2-87.2,105.2-125.3,162
			c-37.5,55.8-70,115.4-91.5,179.3c-12.5,37-25.2,78.2-17.6,117.5c0.3,1.6,2.4,1.3,2.9,0c26.1-70.9,46.9-143.5,62.4-217.4
			c4.4-21.1,8.4-42.3,11.9-63.6c0.2-1.3-1.5-2.8-2.5-1.5c-23.8,30-49.2,58.8-76.1,86.1l2.6,1.1c0.3-28.8,7-57.2,19.6-83.1l-2.6-1.6
			c-27.2,61-89.6,92.5-140.4,130.7c-14.9,11.2-29.2,23.3-41.8,37l2.4,1.8c22.5-29.4,45.3-59.9,57.6-95.3c3.1-8.8,5.3-17.9,6.7-27.1
			c1.1-7.5,2.3-15.8,0.9-23.4c-3.5-17.8-26.1-11.4-38.4-8.5c-20.9,4.8-40.7,13.8-58.2,26.3l2.1,2.1c24.8-35.8,50-72.9,62.2-115.1
			c5.5-18.8,9-39.9,6.3-59.4c-0.9-6.7-3.2-14.2-8.7-18.6c-6.7-5.3-14.8-2.8-21.6,1c-16.8,9.6-29.7,24.8-40.3,40.8
			c-12.1,18.3-22,38.2-31.4,57.9c-42,87.6-67.5,182.2-75.4,279"/>
		<path class="st0" d="M739.3,88.8l-18,47.9l2.5-0.7c-6.2-6.3-13-11.9-20.3-16.8c-4.6-3.1-11.3-8.1-16.8-3.9
			c-5,3.8-6.2,12.7-7.5,18.3c-1.9,9.1-2.8,18.3-2.5,27.6l2.8-0.8c-10.7-20.6-29.3-35.9-51.5-42.7"/>
		<path class="st0" d="M723.8,138.1"/>
		<path class="st0" d="M679,162.5"/>
		<path class="st0" d="M622.6,125.8c0.3,8.8,1.4,18.9,8.9,24.7c5.7,4.3,14.2,5,18.9-1.1c3.9-5.1,3.4-12.8,0.2-18.2
			c-4.7-7.9-14.3-11-22.7-13.3"/>
		<path class="st0" d="M557.3,123.5"/>
		<path class="st0" d="M538.3,145.6"/>
		<path class="st0" d="M412.3,105.3"/>
		<path class="st0" d="M536.3,2.7"/>
		<path class="st0" d="M320.7,180.8"/>
	</g>
</g>
</svg>
