<svg xmlns="http://www.w3.org/2000/svg" viewBox="0 0 920.82 427.61"><title>signature</title><g id="Warstwa_2" data-name="Warstwa 2"><g id="Warstwa_1-2" data-name="Warstwa 1"><path d="M3,426.16c.48-101.78,16.36-203.79,48-300.59C63.57,87,80.62,46.46,113.11,20.36,127,9.2,149.58-3.88,167.52,5.9c11.09,6,12.21,19.14,11.85,30.44a220.47,220.47,0,0,1-3.6,33.16,235,235,0,0,1-69,127.34,1.51,1.51,0,0,0,1.46,2.51q31.76-7,63.82-12.56,16.27-2.8,32.6-5.2c9.73-1.43,21.94-1.95,22.56,11,.41,8.51-3.82,16.66-7.55,24a199.12,199.12,0,0,1-12.84,21.79A203.94,203.94,0,0,1,172,277.59a202.47,202.47,0,0,1-49.88,31.94l1.51,2.59A759.45,759.45,0,0,0,277.81,204.65q20.05-18.06,38.77-37.53h-2.12c20.6,24.82,60.52,28.34,85.35,7.94l-2.51-1.46q-35,96.06-76.1,189.71-11.53,26.22-23.53,52.22l2.74,1.16Q352,278.6,416.17,145.71q18.09-37.41,37.16-74.33L450.59,71a563.66,563.66,0,0,1,21.76,128.9l1.9-1.45a165.59,165.59,0,0,1-78.32-62.16l-.9,2.2a185.16,185.16,0,0,1,78.32-5l-1.1-1.45,2.21,98.31a1.52,1.52,0,0,0,2.56,1.06,334.33,334.33,0,0,1,102.59-80.53l-2.2-.9,5.69,35.43a1.51,1.51,0,0,0,2.2.9,278.52,278.52,0,0,0,50.54-47.2l-2.56-1.06L636,173.2l1.22,15.61.61,7.8c.14,1.8-.23,4.93.66,6.61,1.06,2,4.85,3.57,6.78,4.47a32,32,0,0,0,9.46,2.71,39.35,39.35,0,0,0,17.61-1.88c11.46-3.9,21.83-12.86,24.85-24.92,3.21-12.82-2.86-25.7-12.84-33.74-11.42-9.2-27.53-12.52-40.71-5.13a1.54,1.54,0,0,0-.69,1.69c7.92,43.16,59.36,70.45,99.61,53.44a1.48,1.48,0,0,0,.74-1.3A65,65,0,0,1,763,154.47l-2.51-.66,36.42,97.51,2.74-1.16c-12.82-26.72,3-58.15,25.37-74.27,26.91-19.37,62.46-21,94.34-22.53,1.92-.09,1.93-3.1,0-3-27.53,1.35-56.1,2.89-81.49,14.69-21.11,9.81-38.53,28.19-44.16,51.17a52.34,52.34,0,0,0,3.35,35.45c.73,1.51,3.34.44,2.74-1.16L763.39,153a1.52,1.52,0,0,0-2.51-.66,67.79,67.79,0,0,0-20.23,41.49c-.28,2.73-.1,3.5-2.74,4.7a31.51,31.51,0,0,1-4.8,1.51,60.48,60.48,0,0,1-10.67,1.87,68.62,68.62,0,0,1-20.13-1.35c-27.21-5.86-51.3-27-56.43-54.93l-.69,1.69c21.63-12.12,54.18,8.41,49.51,33.81-2.1,11.42-11.46,20.16-22,24.11a37.19,37.19,0,0,1-16.38,2.33c-5.13-.48-13.9-2.36-15.19-8-1.11-4.88-.83-10.61-1.22-15.61l-1.14-14.63-2.44-31.22c-.09-1.16-1.66-2.15-2.56-1.06a275.53,275.53,0,0,1-49.94,46.73l2.2.9-5.69-35.43a1.52,1.52,0,0,0-2.2-.9,336.51,336.51,0,0,0-103.2,81l2.56,1.06-2.21-98.31a1.52,1.52,0,0,0-1.1-1.45,188.74,188.74,0,0,0-79.92,5,1.51,1.51,0,0,0-.9,2.2,169.05,169.05,0,0,0,80.11,63.54,1.51,1.51,0,0,0,1.9-1.45,567.24,567.24,0,0,0-21.86-129.7,1.52,1.52,0,0,0-2.74-.36q-67.57,130.9-122.81,267.67-15.73,39-30.42,78.36c-.59,1.58,2,2.7,2.74,1.16Q343,324.31,379.78,229q10.46-27.18,20.42-54.55c.56-1.55-1.47-2.31-2.51-1.46-23.65,19.43-61.63,15.53-81.1-7.94a1.51,1.51,0,0,0-2.12,0A756.23,756.23,0,0,1,168.24,283.19q-22.57,14-46.09,26.34c-1.74.91-.21,3.37,1.51,2.59a206.6,206.6,0,0,0,86.15-72.88,199,199,0,0,0,14.11-24.6c3.4-7.06,6.75-14.7,6.22-22.72-1.39-20.91-27.56-13.11-40.71-11q-41.24,6.52-82,15.56l1.46,2.51A237.74,237.74,0,0,0,176,82.89a232.25,232.25,0,0,0,5.6-33.7c1-10.58,2.34-22.55-1.45-32.74-6.8-18.31-28.13-19-43.94-13.27C117.45,10,101.43,25,89.32,40.4c-13,16.54-22.63,35.43-30.54,54.85-9.16,22.48-16.15,45.86-22.63,69.23Q25.2,203.91,17.55,244.15A998.59,998.59,0,0,0,0,426.16a1.5,1.5,0,0,0,3,0Z"/></g></g></svg>