<svg xmlns="http://www.w3.org/2000/svg" viewBox="0 0 371.02 172.16"><defs><style>.cls-1{fill:none;stroke:#000;stroke-miterlimit:10;}</style></defs><title>wave</title><g id="Warstwa_2" data-name="Warstwa 2"><g id="Warstwa_1-2" data-name="Warstwa 1"><path class="cls-1" d="M0,.55c31.5.5,40.85,40.49,58,38C73.94,36.23,94,2,110,.55c16.85-1.55,39.11,37.07,56,38,15.09.84,31.91-37.31,47-38,17.11-.79,39.88,38.45,57,38,15.89-.42,35.16-36.65,51-38,15.64-1.33,31.5,38.5,50,38"/><path class="cls-1" d="M0,33.8c31.5.5,40.85,40.49,58,38,15.93-2.32,36-36.52,52-38,16.85-1.55,39.11,37.07,56,38,15.09.84,31.91-37.31,47-38,17.11-.79,39.88,38.45,57,38,15.89-.42,35.16-36.65,51-38,15.64-1.33,31.5,38.5,50,38"/><path class="cls-1" d="M0,67c31.5.5,40.85,40.49,58,38,15.93-2.32,36-36.52,52-38,16.85-1.55,39.11,37.07,56,38,15.09.84,31.91-37.31,47-38,17.11-.79,39.88,38.45,57,38,15.89-.42,35.16-36.65,51-38,15.64-1.33,31.5,38.5,50,38"/><path class="cls-1" d="M0,100.3c31.5.5,40.85,40.49,58,38,15.93-2.32,36-36.52,52-38,16.85-1.55,39.11,37.07,56,38,15.09.84,31.91-37.31,47-38,17.11-.79,39.88,38.45,57,38,15.89-.42,35.16-36.65,51-38,15.64-1.33,31.5,38.5,50,38"/><path class="cls-1" d="M0,133.55c31.5.5,40.85,40.49,58,38,15.93-2.32,36-36.52,52-38,16.85-1.55,39.11,37.07,56,38,15.09.84,31.91-37.31,47-38,17.11-.79,39.88,38.45,57,38,15.89-.42,35.16-36.65,51-38,15.64-1.33,31.5,38.5,50,38"/></g></g></svg>